# xmcd
#
# Track frame offsets:
#	150
#	21517
#	62510
#	76675
#	95512
#	126055
#	141480
#	173340
#	199850
#	221080
#	240957
#	260777
#	275622
#	332600
#
# Disc length: 4530
#
# Revision: 1
# Processed by: cddbd v1.5.1PL0 Copyright (c) Steve Scherf et al.
# Submitted via: ExactAudioCopy v0.95a5
# Normalized: r0:TDELIM( - )
#
DISCID=c711b00e
DTITLE=Various Artist - Eternal Light - Lumière Éternelle
DYEAR=1999
DGENRE=Opera
TTITLE0=Giovanni Battista Pergolesi - Stabat Mater
TTITLE1=Samuel Barber - Adagio for Strings
TTITLE2=Gabriel Fauré - Pie Jesu
TTITLE3=Johann Pachelbel - Kanon
TTITLE4=Johann Sebastian Bach - Es ist vollbracht
TTITLE5=Quatuor Arthur-Leblanc - Greensleeves
TTITLE6=Heitor Villa-Lobos - Bachiana brasileira No. 5 - Aria-Cantilena
TTITLE7=Joseph Haydn - Introduzione I - Maestoso ed Adagio
TTITLE8=George Frideric Handel - Ombra mai fu
TTITLE9=Camille Saint-Saëns - Tecum principium
TTITLE10=Inperayntz - Verges Ses Par
TTITLE11=Sergei Rachmaninov - O Come and Worship
TTITLE12=Gregorio Allegri - Miserere
TTITLE13=Johann Sebastian Bach - Ach Herr!
EXTD=
EXTT0=
EXTT1=
EXTT2=
EXTT3=
EXTT4=
EXTT5=
EXTT6=
EXTT7=
EXTT8=
EXTT9=
EXTT10=
EXTT11=
EXTT12=
EXTT13=
PLAYORDER=
